<svg width="40" height="34" viewBox="0 0 40 34" fill="none" xmlns="http://www.w3.org/2000/svg">
<g clip-path="url(#clip0_347_26)">
<path d="M29.4101 26.997C26.5181 28.5478 23.163 29.3691 19.7384 29.3645C10.8723 29.3645 3.49601 23.9705 1.94873 16.8525C2.65583 13.6143 4.58228 10.6562 7.44067 8.41944L2.29568 4.07361L4.62235 2.10645L37.1777 29.6328L34.8511 31.5986L29.4085 26.997H29.4101ZM9.76571 10.388C7.53112 12.1057 5.97448 14.3623 5.30638 16.8525C5.81988 18.7522 6.85081 20.5243 8.31709 22.0278C9.78337 23.5312 11.6445 24.7245 13.7524 25.5126C15.8603 26.3008 18.1566 26.662 20.4587 26.5676C22.7608 26.4731 25.005 25.9256 27.0127 24.9686L23.6781 22.1493C22.2585 22.9053 20.5773 23.231 18.91 23.073C17.2428 22.915 15.6885 22.2826 14.5022 21.2796C13.3159 20.2766 12.568 18.9625 12.3811 17.5529C12.1942 16.1432 12.5794 14.7217 13.4736 13.5216L9.76571 10.388ZM21.2412 20.089L15.9104 15.5819C15.6179 16.2115 15.549 16.8997 15.7123 17.562C15.8756 18.2243 16.264 18.8319 16.8298 19.3103C17.3956 19.7886 18.1142 20.117 18.8976 20.2551C19.6809 20.3932 20.4948 20.3349 21.2396 20.0876L21.2412 20.089ZM34.2197 23.2364L31.8667 21.2484C32.9658 19.9239 33.7484 18.4307 34.1703 16.8525C33.7235 15.1978 32.8833 13.6371 31.7008 12.2655C30.5184 10.8938 29.0184 9.73977 27.292 8.87349C25.5657 8.00721 23.649 7.4468 21.6585 7.2263C19.6679 7.00581 17.6452 7.12984 15.7131 7.59087L13.1184 5.3971C15.1689 4.71589 17.4035 4.34053 19.7384 4.34053C28.6044 4.34053 35.9807 9.73459 37.528 16.8525C37.0241 19.1682 35.8917 21.3535 34.2197 23.2364ZM19.2829 10.6076C20.3295 10.553 21.3779 10.687 22.3586 11.0008C23.3393 11.3147 24.2299 11.8012 24.9714 12.4281C25.7129 13.055 26.2883 13.808 26.6595 14.6371C27.0307 15.4663 27.1892 16.3527 27.1245 17.2376L19.2812 10.6076H19.2829Z" fill="#1A1E1E"/>
</g>
<defs>
<clipPath id="clip0_347_26">
<rect width="39.4631" height="33.3653" fill="white" transform="translate(0.00683594 0.169922)"/>
</clipPath>
</defs>
</svg>
